<?xml version="1.0" encoding="UTF-8" standalone="no"?>
<svg
   width="500"
   zoomAndPan="magnify"
   viewBox="0 0 375 374.99999"
   height="500"
   preserveAspectRatio="xMidYMid"
   version="1.0"
   id="svg45"
   xmlns:xlink="http://www.w3.org/1999/xlink"
   xmlns="http://www.w3.org/2000/svg">
  <g
     id="g47"
     clip-path="url(#clipPath47)">
    <g
       id="g46">
      <g
         id="g45">
        <g
           clip-path="url(#8479a32cca)"
           id="g22">
          <g
             clip-path="url(#6fc7b753db)"
             id="g21">
            <path
               fill="#f85b19"
               d="m 45.707031,147.10547 29.214844,-17.52735 126.445315,210.78907 -29.21485,17.52343 z m 0,0"
               fill-opacity="1"

               id="path21" />
          </g>
        </g>
        <g
           clip-path="url(#b0917a99c0)"
           id="g25">
          <g
             clip-path="url(#0c345a6460)"
             id="g24">
            <g
               clip-path="url(#8592c3c152)"
               id="g23">
              <path
                 fill="#f85b19"
                 d="M 56.960938,99.867188 45.238281,148.24609 75.199219,130.27344 Z m 0,0"
                 fill-opacity="1"
                 
                 id="path22" />
            </g>
          </g>
        </g>
        <g
           clip-path="url(#09654c6322)"
           id="g27">
          <g
             clip-path="url(#517845ea87)"
             id="g26">
            <path
               fill="#141414"
               d="M 60.253906,98.382812 204.04687,12.230469 328.89844,220.62109 185.10156,306.76953 Z m 0,0"
               fill-opacity="1"

               id="path25" />
          </g>
        </g>
        <g
           fill="#ffffff"
           fill-opacity="1"
           id="g30">
          <g
             transform="translate(168.18975,259.10745)"
             id="g29">
            <g
               id="g28">
              <path
                 d="m 52.75,-41.859375 c 6.175781,-3.59375 11.148438,-7.953125 14.921875,-13.078125 3.78125,-5.132812 6.195313,-10.910156 7.25,-17.328125 1.050781,-6.414063 0.707031,-13.375 -1.03125,-20.875 C 72.148438,-100.64063 68.863281,-108.55078 64.03125,-116.875 59.195312,-125.19531 53.9375,-132 48.25,-137.28125 c -5.6875,-5.28906 -11.609375,-9.05078 -17.765625,-11.28125 -6.15625,-2.23828 -12.402344,-2.98828 -18.734375,-2.25 -6.324219,0.74219 -12.578125,2.90625 -18.765625,6.5 l -15.6875,9.10938 c 4.25,7.86718 8.640625,15.69531 13.171875,23.48437 4.523438,7.79297 9.09375,15.667969 13.71875,23.625 l 3.84375,6.609375 c 5.113281,8.804687 10,17.21875 14.65625,25.25 4.664062,8.023437 9.394531,15.886719 14.1875,23.59375 z M -8.671875,-154.57812 c 8.199219,-4.75782 16.5625,-7.86719 25.09375,-9.32813 8.539063,-1.45703 16.816406,-1.17187 24.828125,0.85938 8.019531,2.02343 15.644531,5.90234 22.875,11.64062 7.226562,5.74219 13.640625,13.42188 19.234375,23.04688 5.59375,9.63671 8.945313,19.10546 10.0625,28.406245 1.113281,9.292969 0.375,18.074219 -2.21875,26.34375 C 88.609375,-65.347656 84.351562,-57.75 78.4375,-50.8125 72.519531,-43.875 65.398438,-37.988281 57.078125,-33.15625 L 7.84375,-4.5625 l -4.25,-7.3125 15.28125,-11.5 c -4.199219,-7.75 -8.59375,-15.578125 -13.1875,-23.484375 -4.59375,-7.90625 -9.40625,-16.195313 -14.4375,-24.875 l -3.84375,-6.609375 c -4.488281,-7.726562 -8.941406,-15.394531 -13.359375,-23 -4.425781,-7.61328 -9,-15.21875 -13.71875,-22.8125 l -17.546875,7.57812 -4.265625,-7.32812 z m 0,0"
                 id="path27" />
            </g>
          </g>
        </g>
        <g
           clip-path="url(#253764919f)"
           id="g32">
          <g
             clip-path="url(#0ebc11b5fb)"
             id="g31">
            <path
               fill="#f85b19"
               d="m 301.73047,240.98437 17.52344,29.21094 -146.17579,87.6875 -17.52343,-29.21484 z m 0,0"
               fill-opacity="1"

               id="path30" />
          </g>
        </g>
        <g
           clip-path="url(#a496cdcea3)"
           id="g35">
          <g
             clip-path="url(#0fac4570bf)"
             id="g34">
            <g
               clip-path="url(#77ee09d0a9)"
               id="g33">
              <path
                 fill="#f85b19"
                 d="m 330.65234,223.62891 -12.00781,46.53515 -17.35156,-28.92578 z m 0,0"
                 fill-opacity="1"
  
                 id="path32" />
            </g>
          </g>
        </g>
        <g
           clip-path="url(#c848e72c74)"
           id="g37">
          <g
             clip-path="url(#a66c00da83)"
             id="g36">
            <path
               fill="#141414"
               d="m 228.78516,329.50781 v -45.89453 h 38.26953 v 45.89453 z m 0,0"
               fill-opacity="1"
               id="path35" />
          </g>
        </g>
        <g
           clip-path="url(#5f15125340)"
           id="g40">
          <g
             clip-path="url(#969fe84c78)"
             id="g39">
            <g
               clip-path="url(#d6c6c04308)"
               id="g38">
              <path
                 fill="#141414"
                 d="m 272.72266,293.78516 -39.625,23.23437 -5.97266,-10.18359 39.625,-23.23438 z m 0,0"
                 fill-opacity="1"
  
                 id="path37" />
            </g>
          </g>
        </g>
        <path
           fill="#141414"
           d="m 266.05469,346.91406 v -37.91015 h -37.91016 z m 0,0"
           fill-opacity="1"
           id="path40" />
        <g
           clip-path="url(#c45dae8a19)"
           id="g41">
          <path
             fill="#141414"
             d="m 228.14453,308.13281 h 37.91016 c 0.62109,0 0.99609,0.375 0.99609,0.8711 v 37.91015 c 0,0.3711 -0.25,0.7461 -0.62109,0.86719 -0.25,0.25 -0.7461,0.125 -0.9961,-0.12109 L 227.52344,309.75 c -0.2461,-0.25 -0.3711,-0.62109 -0.2461,-0.99609 0.2461,-0.3711 0.4961,-0.6211 0.86719,-0.6211 z M 265.18359,310 h -34.67578 l 34.67578,34.67578 z m 0,0"
             fill-opacity="1"

             id="path41" />
        </g>
        <path
           fill="#141414"
           d="m 228.14453,361.64453 v -37.91016 h 37.91016 z m 0,0"
           fill-opacity="1"
           id="path42" />
        <g
           clip-path="url(#8780e4b082)"
           id="g43">
          <path
             fill="#141414"
             d="m 266.05469,322.86719 h -37.91016 c -0.62109,0 -0.99219,0.37109 -0.99219,0.86718 v 37.91016 c 0,0.375 0.25,0.74609 0.6211,0.87109 0.25,0.2461 0.74609,0.125 0.99609,-0.125 l 37.90625,-37.91015 c 0.25,-0.2461 0.375,-0.6211 0.25,-0.99219 -0.25,-0.375 -0.49609,-0.62109 -0.87109,-0.62109 z m -37.03907,1.86328 h 34.67969 l -34.67969,34.67578 z m 0,0"
             fill-opacity="1"

             id="path43" />
        </g>
        <g
           clip-path="url(#0935a2a45b)"
           id="g44">
          <path
             fill="#141414"
             d="m 267.05078,323.5625 h -39.88672 v -16.90625 h 39.88672 z m 0,0"
             fill-opacity="1"

             id="path44" />
        </g>
        <path
           transform="matrix(0.581816,-0.353051,0.353051,0.581816,216.32864,314.52473)"
           fill="none"
           d="M -0.00217171,0.500008 105.17685,0.501248"
           stroke="#141414"
           stroke-width="1"
           stroke-opacity="1"
           stroke-miterlimit="4"
           id="path45" />
      </g>
    </g>
  </g>
  <defs
     id="defs20">
    <clipPath
       id="8479a32cca">
      <path
         d="M 45,129 H 202 V 358 H 45 Z m 0,0"

         id="path1" />
    </clipPath>
    <clipPath
       id="6fc7b753db">
      <path
         d="m 45.707031,147.10547 29.214844,-17.52735 126.425785,210.75391 -29.21485,17.52734 z m 0,0"

         id="path2" />
    </clipPath>
    <clipPath
       id="b0917a99c0">
      <path
         d="m 45,100 h 30 v 49 H 45 Z m 0,0"

         id="path3" />
    </clipPath>
    <clipPath
       id="0c345a6460">
      <path
         d="M 56.992188,99.847656 75.195312,130.19531 45.433594,148.04687 27.226562,117.69922 Z m 0,0"

         id="path4" />
    </clipPath>
    <clipPath
       id="8592c3c152">
      <path
         d="m 26.964844,117.85938 18.203125,30.34765 29.765625,-17.85547 -18.207032,-30.34765 z m 0,0"

         id="path5" />
    </clipPath>
    <clipPath
       id="09654c6322">
      <path
         d="M 60,12 H 329 V 307 H 60 Z m 0,0"

         id="path6" />
    </clipPath>
    <clipPath
       id="517845ea87">
      <path
         d="M 60.253906,98.382812 204.04687,12.230469 328.84375,220.53125 185.04687,306.67969 Z m 0,0"

         id="path7" />
    </clipPath>
    <clipPath
       id="253764919f">
      <path
         d="M 155,240 H 320 V 358 H 155 Z m 0,0"

         id="path8" />
    </clipPath>
    <clipPath
       id="0ebc11b5fb">
      <path
         d="m 301.73047,240.98437 17.52344,29.21094 -146.14063,87.66797 -17.52344,-29.21484 z m 0,0"

         id="path9" />
    </clipPath>
    <clipPath
       id="a496cdcea3">
      <path
         d="m 301,223 h 30 v 48 h -30 z m 0,0"

         id="path10" />
    </clipPath>
    <clipPath
       id="0fac4570bf">
      <path
         d="m 348.02344,252.58594 -29.17969,17.5039 -17.50391,-29.17968 29.17969,-17.50391 z m 0,0"

         id="path11" />
    </clipPath>
    <clipPath
       id="77ee09d0a9">
      <path
         d="m 348.02344,252.58594 -29.17969,17.5039 -17.50391,-29.17968 29.17969,-17.50391 z m 0,0"

         id="path12" />
    </clipPath>
    <clipPath
       id="c848e72c74">
      <path
         d="m 228.78516,283.46484 h 38.26953 v 46.04297 h -38.26953 z m 0,0"

         id="path13" />
    </clipPath>
    <clipPath
       id="a66c00da83">
      <path
         d="m 228.78516,306.55078 38.26953,-22.95703 v 45.91406 z m 0,0"

         id="path14" />
    </clipPath>
    <clipPath
       id="5f15125340">
      <path
         d="m 227,283 h 40 v 24 h -40 z m 0,0"

         id="path15" />
    </clipPath>
    <clipPath
       id="969fe84c78">
      <path
         d="m 272.72266,293.78516 -39.625,23.23437 -5.97266,-10.18359 39.625,-23.23438 z m 0,0"

         id="path16" />
    </clipPath>
    <clipPath
       id="d6c6c04308">
      <path
         d="m 252.91797,305.39844 -25.77344,1.42578 39.60547,-23.22266 z m 0,0"

         id="path17" />
    </clipPath>
    <clipPath
       id="c45dae8a19">
      <path
         d="m 227,308 h 40.05078 v 40 H 227 Z m 0,0"

         id="path18" />
    </clipPath>
    <clipPath
       id="8780e4b082">
      <path
         d="M 227.15234,322.60937 H 267 v 40.15235 h -39.84766 z m 0,0"

         id="path19" />
    </clipPath>
    <clipPath
       id="0935a2a45b">
      <path
         d="m 227.14844,306.65625 h 39.90234 v 16.90625 h -39.90234 z m 0,0"

         id="path20" />
    </clipPath>
    <clipPath
       id="clipPath47">
      <use
         x="0"
         y="0"
         xlink:href="#g46"
         id="use47" />
    </clipPath>
  </defs>
</svg>
